<svg width="60" height="60" viewBox="0 0 48 48" fill="none" xmlns="http://www.w3.org/2000/svg">
  <g class="wing-left">
    <path d="M22 24C16 18 6 14 4 18C2 22 10 28 16 28C18 28 20 26 22 24Z" fill="url(#l1)" opacity="0.85" />
    <path d="M22 24C18 30 12 38 16 40C20 42 24 34 24 28C24 26 23 25 22 24Z" fill="url(#l2)" opacity="0.7" />
  </g>
  <g class="wing-right">
    <path d="M26 24C32 18 42 14 44 18C46 22 38 28 32 28C30 28 28 26 26 24Z" fill="url(#r1)" opacity="0.85" />
    <path d="M26 24C30 30 36 38 32 40C28 42 24 34 24 28C24 26 25 25 26 24Z" fill="url(#r2)" opacity="0.7" />
  </g>
  <ellipse cx="24" cy="28" rx="1.5" ry="8" fill="url(#body)" />
  <defs>
    <linearGradient id="l1" x1="4" y1="18" x2="22" y2="24" gradientUnits="userSpaceOnUse">
      <stop stop-color="#34d399" />
      <stop offset="1" stop-color="#10b981" />
    </linearGradient>
    <linearGradient id="l2" x1="12" y1="38" x2="24" y2="24" gradientUnits="userSpaceOnUse">
      <stop stop-color="#3b82f6" />
      <stop offset="1" stop-color="#10b981" />
    </linearGradient>
    <linearGradient id="r1" x1="44" y1="18" x2="26" y2="24" gradientUnits="userSpaceOnUse">
      <stop stop-color="#34d399" />
      <stop offset="1" stop-color="#10b981" />
    </linearGradient>
    <linearGradient id="r2" x1="36" y1="38" x2="24" y2="24" gradientUnits="userSpaceOnUse">
      <stop stop-color="#3b82f6" />
      <stop offset="1" stop-color="#10b981" />
    </linearGradient>
    <linearGradient id="body" x1="24" y1="20" x2="24" y2="36" gradientUnits="userSpaceOnUse">
      <stop stop-color="#94a3b8" />
      <stop offset="1" stop-color="#475569" />
    </linearGradient>
  </defs>
</svg>